<svg width="258" height="141" viewBox="0 0 258 141" fill="none" xmlns="http://www.w3.org/2000/svg">
<path opacity="0.5" d="M58.4031 139.796C70.8231 140.768 83.7831 139.58 96.6351 139.4C129.503 138.932 162.443 138.32 195.275 140.048C208.487 140.732 222.527 140.084 234.011 132.812C246.539 124.892 253.667 110.312 256.007 95.6597C258.455 80.3597 258.167 61.2437 252.515 46.7717C232.535 -4.42026 165.323 -0.100259 125.615 22.2917C117.263 27.0077 108.587 31.9037 99.0471 33.7037C89.1111 35.5757 81.4791 30.8237 72.5511 27.1877C60.0951 22.1117 45.6951 21.7157 33.2031 26.7557C-7.0809 43.0637 -8.98889 99.3677 21.6471 125.72C32.8071 135.332 45.2991 138.788 58.4031 139.796Z" fill="#9DCEBE"/>
<path d="M160.032 70.4243L160.788 66.2123L150.204 49.3643C149.844 48.9323 149.592 48.4643 149.448 47.9243L143.976 29.5643L138.684 29.5283L141.78 50.1203C142.14 52.5683 142.86 54.9443 143.976 57.1763L156.828 79.2443L160.032 70.4243Z" fill="#F3B2A7"/>
<path d="M144.983 32.6963C144.983 32.6963 143.867 30.1763 143.687 28.0523C143.507 25.9283 143.831 25.3883 143.687 23.5883C143.543 21.7883 143.903 18.9803 143.615 18.9443C143.327 18.9083 142.283 18.8723 142.139 20.1683C141.995 21.4643 141.707 22.8323 141.707 22.8323L139.079 17.4323C139.079 17.4323 138.071 15.3083 137.279 15.7763C136.451 16.2803 139.007 20.3123 138.719 20.5643C138.287 20.8883 136.667 18.4403 136.667 18.4403C136.667 18.4403 135.047 15.7403 134.219 16.2083C133.427 16.6763 136.667 20.9603 136.667 20.9603C136.667 20.9603 137.063 21.7523 136.487 21.6443C135.911 21.5003 133.607 17.9003 132.779 18.1523C131.987 18.4403 134.291 21.2843 134.291 21.2843C134.291 21.2843 135.839 22.7603 135.155 23.0123C134.471 23.3003 132.131 20.7443 131.699 21.2123C131.231 21.6803 133.175 23.5523 133.967 24.1283C134.759 24.7403 135.731 25.8203 136.235 26.7923C136.739 27.7643 137.423 29.0963 138.683 29.4203L139.799 33.0203L144.983 32.6963Z" fill="#F3B2A7"/>
<path opacity="0.24" d="M141.563 23.0127C141.563 23.0127 140.555 25.6767 140.843 26.7927L139.943 25.1727C139.979 25.1727 141.131 23.6607 141.563 23.0127Z" fill="#F3B2A7"/>
<path d="M174.431 72.0085C174.431 72.0085 171.227 62.6125 165.863 62.3965C159.563 62.1445 151.355 49.3645 151.355 49.3645L145.523 29.5645L137.387 31.4725C137.387 31.4725 139.151 50.2285 141.131 55.8445C143.939 63.6565 158.339 81.8725 158.339 81.8725L174.431 72.0085Z" fill="#FFF9E2"/>
<path d="M174.142 41.3001L174.43 36.5121C174.43 36.5121 166.654 36.3321 164.242 44.0721C161.794 51.9201 163.522 62.2521 163.522 62.2521L170.362 64.4121L170.542 43.1361L174.142 41.3001Z" fill="#404040"/>
<path d="M173.352 41.3007L174.18 36.5127C174.18 36.5127 181.02 37.0167 182.856 43.6407C185.016 51.4887 184.332 62.4327 184.332 62.4327L177.924 64.3767L176.952 43.1007L173.352 41.3007Z" fill="#404040"/>
<path d="M172.523 51.7045L181.883 49.4005L182.711 65.8525L165.611 64.3765L166.187 48.6445L172.523 51.7045Z" fill="#404040"/>
<path d="M186.959 71.5767L186.203 67.3647L196.463 54.6567C196.823 54.2247 197.399 49.5807 197.543 49.0767L203.015 30.7167L208.307 30.6807L205.211 51.2727C204.851 53.7207 204.131 56.0967 203.015 58.3287L190.163 80.3967L186.959 71.5767Z" fill="#F3B2A7"/>
<path d="M202.008 33.8487C202.008 33.8487 203.124 31.3287 203.304 29.2047C203.484 27.0807 203.16 26.5407 203.304 24.7407C203.448 22.9407 203.088 20.1327 203.376 20.0967C203.664 20.0607 204.708 20.0247 204.852 21.3207C204.996 22.6167 205.284 23.9847 205.284 23.9847L207.912 18.5847C207.912 18.5847 208.92 16.4607 209.712 16.9287C210.54 17.4327 207.984 21.4647 208.272 21.7167C208.704 22.0407 210.324 19.5927 210.324 19.5927C210.324 19.5927 211.944 16.8927 212.772 17.3607C213.564 17.8287 210.324 22.1127 210.324 22.1127C210.324 22.1127 209.928 22.9047 210.504 22.7967C211.08 22.6527 213.384 19.0527 214.212 19.3047C215.004 19.5927 212.7 22.4367 212.7 22.4367C212.7 22.4367 211.152 23.9127 211.836 24.1647C212.52 24.4167 214.86 21.8967 215.292 22.3647C215.76 22.8327 213.816 24.7047 213.024 25.2807C212.232 25.8927 211.26 26.9727 210.756 27.9447C210.252 28.9527 209.568 30.2487 208.308 30.5727L207.192 34.1727L202.008 33.8487Z" fill="#F3B2A7"/>
<path opacity="0.24" d="M205.391 24.165C205.391 24.165 206.399 26.829 206.111 27.945L207.011 26.325C207.011 26.289 205.823 24.813 205.391 24.165Z" fill="#F3B2A7"/>
<path d="M172.523 73.1248C172.523 73.1248 179.327 62.6488 184.727 62.4328C191.027 62.1808 195.995 52.9288 195.995 52.9288L201.431 30.7168L209.567 32.6248C209.567 32.6248 207.803 51.3808 205.823 56.9968C203.015 64.8088 188.183 83.4568 188.183 83.4568L172.523 73.1248Z" fill="#FFF9E2"/>
<path d="M168.922 51.8125V61.6045C168.922 61.6045 173.422 63.1525 176.014 62.8645C178.642 62.5765 178.822 60.9565 178.822 60.9565L178.39 51.8125H168.922Z" fill="#F3B2A7"/>
<path opacity="0.64" d="M170.507 54.4048L169.211 56.6368C169.211 56.6368 172.811 61.2088 178.859 60.9208L178.571 52.6768L170.507 54.4048Z" fill="#F3B2A7"/>
<path d="M163.09 61.7486C158.59 61.3166 155.89 92.7085 160.894 109.017C160.894 109.017 168.31 109.053 169.102 108.801C169.894 108.585 171.694 110.385 175.438 108.909C175.438 108.909 184.51 112.293 185.158 109.917C191.098 88.3885 187.174 62.3606 187.174 62.3606C187.174 62.3606 174.43 62.7926 163.09 61.7486Z" fill="#FFF9E2"/>
<path d="M168.562 59.8408C168.562 59.8408 170.974 61.7128 173.746 61.8568C173.746 61.8568 173.206 65.9608 169.966 65.8528C166.762 65.7448 165.07 62.1088 165.07 62.1088L168.562 59.8408Z" fill="#F9E4B9"/>
<path d="M178.93 59.8408C178.93 59.8408 176.518 61.7128 173.746 61.8568C173.746 61.8568 174.286 65.5648 177.526 65.4568C180.73 65.3488 182.422 62.5048 182.422 62.5048L178.93 59.8408Z" fill="#F9E4B9"/>
<path d="M200.675 140.517C200.603 140.301 200.531 140.733 200.459 140.517C197.687 132.093 195.671 117.801 191.891 109.989C188.147 102.177 183.071 101.493 183.071 101.493L169.355 103.905L162.407 102.285L161.255 101.097C161.255 101.097 156.935 103.509 152.759 111.105C148.583 118.701 146.243 132.273 143.039 140.517C142.931 140.769 142.823 140.265 142.715 140.517H200.675Z" fill="#006E58"/>
<path opacity="0.65" d="M200.459 140.516C197.687 132.092 195.671 117.8 191.891 109.988C188.147 102.176 183.071 101.492 183.071 101.492L180.911 101.852C182.315 103.148 183.899 105.128 185.303 108.044C185.267 108.188 179.255 129.608 181.019 127.196C182.783 124.784 185.483 118.16 185.555 123.776C185.627 129.392 175.151 141.452 178.067 140.48C180.983 139.508 184.835 135.836 184.727 137.06C184.619 138.284 182.387 140.48 182.387 140.48H190.667H194.591H200.603C200.603 140.3 200.531 140.732 200.459 140.516Z" fill="#006E58"/>
<path d="M168.562 59.4082C168.562 59.4082 170.974 61.2802 173.746 61.4242C173.746 61.4242 173.206 65.5282 169.966 65.4202C166.762 65.3122 165.07 61.6762 165.07 61.6762L168.562 59.4082Z" fill="#024386"/>
<path d="M178.93 59.4082C178.93 59.4082 176.518 61.2802 173.746 61.4242C173.746 61.4242 174.286 65.1322 177.526 65.0242C180.73 64.9162 182.422 62.0722 182.422 62.0722L178.93 59.4082Z" fill="#024386"/>
<path d="M166.116 46.4124C166.332 41.8404 168.708 37.8444 174.072 38.0244C182.352 38.3124 182.532 52.1364 178.32 56.5644C175.764 59.2644 171.3 59.1204 169.212 56.6364C167.124 54.1164 165.936 50.0844 166.116 46.4124Z" fill="#F3B2A7"/>
<path opacity="0.24" d="M180.478 45.1161C180.01 43.3521 179.614 41.6241 178.642 40.3281L174.466 42.5601C174.466 42.5601 173.89 46.1241 174.142 47.8881C174.646 51.8121 176.122 51.6321 174.97 52.8201C174.034 53.7921 175.726 56.0601 174.826 58.5081C176.302 58.2201 178.606 56.5641 179.254 55.3041C180.946 52.0641 181.522 49.0761 180.478 45.1161Z" fill="#F3B2A7"/>
<path d="M176.987 38.6366C176.987 38.6366 178.175 36.1166 172.019 37.6286C165.863 39.1046 165.611 46.4846 165.611 46.4846L177.923 46.4126L178.499 41.9846L179.039 46.4486L180.191 46.4846C180.983 40.1126 176.987 38.6366 176.987 38.6366Z" fill="#404040"/>
<path d="M167.627 46.9525C167.627 46.9525 166.691 44.7565 165.359 46.3045C164.027 47.8525 165.755 52.2085 168.203 50.2645" fill="#F3B2A7"/>
<path d="M179.974 46.9525C179.974 46.9525 180.91 44.7565 182.242 46.3045C183.574 47.8525 181.846 52.2085 179.398 50.2645" fill="#F3B2A7"/>
<path opacity="0.24" d="M179.974 46.9525C179.974 46.9525 180.91 44.7565 182.242 46.3045C183.574 47.8525 181.846 52.2085 179.398 50.2645" fill="#F3B2A7"/>
<path d="M158.123 97.8926C158.123 97.8926 174.899 101.313 187.787 97.8926V103.653C187.787 103.653 177.635 108.657 158.123 103.653V97.8926Z" fill="#006E58"/>
<path d="M151.463 54.4042C150.599 55.3402 151.355 49.3643 151.355 49.3643L152.831 51.3083C152.831 51.3083 152.255 53.5762 151.463 54.4042Z" fill="#F9E4B9"/>
<path d="M196.067 57.3559C196.499 56.6719 196.031 52.7119 196.031 52.7119L194.663 54.9439C194.627 54.9799 195.599 58.0399 196.067 57.3559Z" fill="#F9E4B9"/>
<path d="M145.99 64.7725L158.734 76.4365L158.014 81.6565L145.99 64.7725Z" fill="#F9E4B9"/>
<path d="M200.495 67.2559L188.579 77.6239L188.111 83.3839L200.495 67.2559Z" fill="#F9E4B9"/>
<path d="M175.871 73.5922C176.159 74.3842 175.619 75.2842 174.647 75.6082C173.711 75.9322 172.703 75.5722 172.415 74.7802C172.127 73.9882 172.667 73.0882 173.639 72.7642C174.611 72.4402 175.583 72.8002 175.871 73.5922Z" fill="#F9E4B9"/>
<path d="M175.871 81.3686C175.619 82.1606 174.611 82.5566 173.675 82.2326C172.703 81.9086 172.163 81.0086 172.415 80.2166C172.667 79.4246 173.675 79.0286 174.611 79.3526C175.583 79.6766 176.159 80.5766 175.871 81.3686Z" fill="#F9E4B9"/>
<path d="M175.763 86.5887C176.123 87.3447 175.727 88.3167 174.827 88.7487C173.927 89.2167 172.883 88.9647 172.523 88.2087C172.163 87.4527 172.559 86.4807 173.459 86.0487C174.359 85.5807 175.403 85.8327 175.763 86.5887Z" fill="#F9E4B9"/>
<path d="M175.871 94.5444C175.619 95.3364 174.611 95.7324 173.675 95.4084C172.703 95.0844 172.163 94.1844 172.415 93.3924C172.667 92.6004 173.675 92.2044 174.611 92.5284C175.583 92.8524 176.159 93.7524 175.871 94.5444Z" fill="#F9E4B9"/>
<path d="M175.475 73.1963C175.763 73.9883 175.223 74.8883 174.251 75.2123C173.315 75.5363 172.307 75.1763 172.019 74.3843C171.731 73.5923 172.271 72.6923 173.243 72.3683C174.215 72.0083 175.187 72.4043 175.475 73.1963Z" fill="#024386"/>
<path d="M175.475 80.936C175.223 81.728 174.215 82.124 173.279 81.8C172.307 81.476 171.767 80.576 172.019 79.784C172.271 78.992 173.279 78.596 174.215 78.92C175.187 79.244 175.727 80.144 175.475 80.936Z" fill="#024386"/>
<path d="M175.366 86.1563C175.726 86.9123 175.33 87.8843 174.43 88.3163C173.53 88.7843 172.486 88.5323 172.126 87.7763C171.766 87.0203 172.162 86.0483 173.062 85.6163C173.962 85.1843 175.006 85.4363 175.366 86.1563Z" fill="#024386"/>
<path d="M175.475 94.1479C175.223 94.9399 174.215 95.3359 173.279 95.0119C172.307 94.6879 171.767 93.7879 172.019 92.9959C172.271 92.2039 173.279 91.8079 174.215 92.1319C175.187 92.4559 175.727 93.3559 175.475 94.1479Z" fill="#024386"/>
<path opacity="0.65" d="M158.123 97.8926C158.123 97.8926 174.899 101.313 187.787 97.8926V103.653C187.787 103.653 177.635 108.657 158.123 103.653V97.8926Z" fill="#006E58"/>
<path d="M60.1668 22.9402C60.1668 22.9402 60.5268 19.7722 61.5348 17.5042C62.5788 15.2722 63.2268 14.9122 64.1268 13.0042C65.0268 11.0962 67.0068 8.50421 66.7548 8.28821C66.5028 8.07221 65.4588 7.46021 64.5588 8.68421C63.6588 9.90821 62.6148 11.0962 62.6148 11.0962L63.0828 4.14821C63.0828 4.14821 63.2988 1.41221 62.2188 1.44821C61.1028 1.48421 61.3548 7.02821 60.8868 7.06421C60.2388 7.13621 60.0588 3.75221 60.0588 3.75221C60.0588 3.75221 59.9868 0.116211 58.9068 0.116211C57.8268 0.116211 58.5828 6.30821 58.5828 6.30821C58.5828 6.30821 58.5108 7.35221 58.0068 6.88421C57.5028 6.41621 57.2868 1.44821 56.3148 1.23221C55.3428 1.05221 56.0268 5.22821 56.0268 5.22821C56.0268 5.22821 56.7468 7.60421 55.8828 7.46021C55.0188 7.31621 54.1908 3.42821 53.4348 3.64421C52.7148 3.82421 53.5788 6.81221 54.0108 7.89221C54.4428 8.97221 54.8028 10.5922 54.7308 11.8882C54.6588 13.1842 54.5868 14.9122 55.6668 15.9202L54.6948 20.2042L60.1668 22.9402Z" fill="#F3B2A7"/>
<path opacity="0.24" d="M62.3633 11.2402C62.3633 11.2402 59.8073 13.3282 59.4473 14.6242L59.4833 12.4642C59.5193 12.4642 61.5353 11.6722 62.3633 11.2402Z" fill="#F3B2A7"/>
<path d="M70.3913 107.396L67.1873 109.088C67.1873 109.088 65.3153 127.304 67.9433 140.516H82.9193L85.0793 123.128L87.7073 140.516H103.547C103.547 140.516 107.507 116.648 99.9833 104.192C92.4593 91.736 70.3913 107.396 70.3913 107.396Z" fill="#024386"/>
<path opacity="0.55" d="M100.667 110.241C100.667 110.241 99.3353 109.341 95.4473 109.053L95.9513 110.601C96.8513 113.337 97.2473 116.181 97.2473 119.061C97.2473 120.357 97.3193 121.617 97.6073 122.337C98.3273 124.137 99.6953 128.457 99.6953 128.457L104.339 123.993L103.943 113.841L100.667 110.241Z" fill="#024386"/>
<path d="M62.543 17.684L63.299 45.188C63.299 45.188 67.907 53.252 72.767 55.448C77.663 57.68 68.915 84.608 65.171 80.36C61.787 76.544 54.335 59.048 51.671 52.352C50.843 50.228 50.519 47.96 50.735 45.692L54.083 17L62.543 17.684Z" fill="#FFF9E2"/>
<path d="M105.564 114.92L105.996 121.868C106.032 122.552 105.852 123.236 105.528 123.812L103.512 127.124C103.26 127.52 102.936 127.844 102.54 128.096C101.892 128.492 100.848 129.104 100.308 129.284C99.8755 129.428 99.7315 128.96 99.7315 128.492C99.6955 127.916 99.9475 127.376 100.38 127.016L101.388 126.152C101.568 126.008 101.676 125.828 101.712 125.576L102.468 121.832C102.504 121.652 102.432 121.436 102.252 121.328L101.784 121.004C101.496 120.824 101.1 120.968 101.028 121.328L100.56 124.352C100.488 124.82 99.9115 124.964 99.6235 124.64L99.2275 124.208C99.0475 123.992 98.9035 123.74 98.8675 123.488L98.2195 120.248C98.1115 119.672 98.1835 119.06 98.4715 118.52L100.56 114.668L105.564 114.92Z" fill="#F3B2A7"/>
<path d="M92.2436 38.6006C92.2436 38.6006 93.7916 43.4246 92.7476 46.2326L92.4236 45.6926C92.4236 45.6926 92.6036 47.9606 91.5236 48.9686L91.1996 48.3206C91.1996 48.3206 90.5156 50.5166 90.0476 51.2006L89.8316 50.7326L88.9676 53.0726L85.2956 51.8846L84.4316 48.5726C84.4316 48.5726 86.2676 43.0286 86.5196 42.8486C86.7716 42.6326 92.2436 38.6006 92.2436 38.6006Z" fill="#404040"/>
<path d="M89.7598 56.8522C89.7598 56.8522 92.5318 55.7362 97.1038 56.4922C101.676 57.2482 104.232 60.8482 108.012 73.7002C111.792 86.5522 111.576 93.0682 111.576 93.0682L108.012 116.252L99.3358 115.028V90.6922L89.7598 56.8522Z" fill="#FFF9E2"/>
<path d="M75.0356 38.6006C75.0356 38.6006 73.4876 43.4246 74.5316 46.2326L74.8556 45.6926C74.8556 45.6926 74.6756 47.9606 75.7556 48.9686L76.0436 48.3206C76.0436 48.3206 76.7276 50.5166 77.1956 51.2006L77.4116 50.7326L78.2756 53.0726L81.9476 51.8846L82.8116 48.5726C82.8116 48.5726 80.9756 43.0286 80.7236 42.8486C80.5076 42.6326 75.0356 38.6006 75.0356 38.6006Z" fill="#404040"/>
<path d="M79.5345 48.6442L78.8865 48.0682L78.7785 52.1722C78.7425 53.0002 78.2385 53.7562 77.4465 54.0442C76.1145 54.5482 75.9345 56.3842 77.1945 57.0682C78.9225 58.0762 81.2985 59.0482 83.6745 58.8682C86.1945 58.6522 88.6065 57.7882 90.2985 57.0322C91.2345 56.6362 91.1985 55.3042 90.2985 54.9082C89.5785 54.5842 89.0745 53.8642 89.0385 53.0722L88.8945 47.4922L79.5345 48.6442Z" fill="#F3B2A7"/>
<path d="M78.7789 56.0599C78.7789 56.0599 95.8429 52.7119 99.3349 61.1359C102.791 69.5239 100.595 93.1399 100.595 93.1399L101.711 110.456C101.711 110.456 98.0029 107.252 90.2629 110.456C82.5229 113.66 68.2309 120.86 65.4589 112.184C62.3269 102.32 65.0629 85.8679 65.4589 64.2319C65.4949 60.3079 65.4229 53.3239 78.7789 56.0599Z" fill="#FFF9E2"/>
<path d="M75.4316 57.3927C75.4316 57.3927 82.3797 60.2367 89.1837 59.0847C90.0837 58.9407 90.9117 58.5087 91.4517 57.7887C91.7757 57.3927 92.0277 56.8527 92.0997 56.2047C92.2437 54.3687 87.9597 56.2047 87.9597 56.2047L75.4316 57.3927Z" fill="#F9E4B9"/>
<path d="M76.9069 52.28C79.2469 51.344 79.8949 53.648 87.1669 52.208C88.6789 51.92 91.0909 51.524 91.9549 53.252C92.3869 54.08 92.0989 56.24 92.8189 56.672C93.9349 57.32 90.5149 57.86 89.3629 58.004C85.5109 58.544 81.5509 58.616 77.6989 58.076C76.7629 57.932 73.5229 57.716 74.1709 56.888C76.3309 54.116 74.8909 53.072 76.9069 52.28Z" fill="#FFF9E2"/>
<path d="M80.8665 50.0845L78.8145 51.4885C78.8145 51.4885 80.0025 55.3405 84.2145 55.4125C87.5625 55.4845 89.5425 49.6885 89.5425 49.6885L80.8665 50.0845Z" fill="#F9E4B9"/>
<path d="M75.4671 39.3559C76.0071 34.3519 78.8511 30.0679 84.7911 30.6439C93.8991 31.5079 93.2151 46.7359 88.2471 51.3439C85.2591 54.1519 80.3271 53.6839 78.2391 50.8399C76.0791 47.9239 75.0351 43.3879 75.4671 39.3559Z" fill="#F3B2A7"/>
<path opacity="0.33" d="M91.4154 38.8883C91.0194 36.9083 90.6594 35.0003 89.6874 33.4883L84.9354 35.6843C84.9354 35.6843 84.0714 39.5723 84.2154 41.5523C84.5394 45.9083 86.1594 45.8003 84.8274 47.0243C83.7474 48.0323 85.4754 50.6243 84.3234 53.2523C85.9434 53.0363 88.4634 51.6323 89.2554 50.2643C91.1634 46.7723 92.2794 43.2803 91.4154 38.8883Z" fill="#F3B2A7"/>
<path d="M90.0473 35.0367C90.0473 35.0367 87.1673 36.7287 83.3513 36.6927C79.5353 36.6567 77.9513 35.4327 76.9073 34.4247C75.8633 33.4527 74.9633 31.3287 75.0353 29.7447C75.1073 28.1607 75.2513 29.3487 76.2233 30.1767C77.1953 31.0047 77.0873 29.9247 76.5833 28.9887C76.0433 28.0167 76.0433 26.8287 76.6913 27.2247C77.3393 27.6207 78.5633 28.9527 79.4273 28.9167C80.2913 28.8807 78.7073 28.1967 78.9953 27.7287C79.3193 27.2607 80.0033 28.8447 82.4873 28.9167C84.9353 28.9887 88.0313 28.9167 89.6153 30.3567C91.1993 31.7967 90.0473 35.0367 90.0473 35.0367Z" fill="#404040"/>
<path d="M86.9867 32.9486C86.9867 32.9486 86.8427 35.9726 89.5787 37.9886C91.3067 39.2846 91.7387 42.8126 91.7387 42.8126L91.9907 42.4166C91.9907 42.4166 92.9267 41.8766 92.9267 39.8606C92.9267 37.8446 92.6387 36.6566 92.6387 36.6566C92.6387 36.6566 93.2147 38.3846 93.2147 37.8446C93.2147 37.3046 93.4667 36.8726 92.7827 35.6486C92.0627 34.4246 92.2787 34.4606 92.2787 34.4606L93.1067 35.3246C93.1067 35.3246 92.4587 33.6686 91.8467 32.6246C90.9467 31.1486 89.5427 30.4646 87.9227 30.5726C86.3387 30.7166 86.9867 32.9486 86.9867 32.9486Z" fill="#404040"/>
<path d="M79.8582 33.0206C79.8582 33.0206 79.5342 36.0446 77.2662 38.1686C74.8542 40.4366 75.3582 43.3526 75.3582 43.3526L74.8182 42.6686C74.8182 42.6686 73.8822 42.1286 73.8822 40.0766C73.8822 38.0246 74.1702 36.8006 74.1702 36.8006C74.1702 36.8006 73.5942 38.5646 73.5942 38.0246C73.5942 37.4846 73.3422 37.0526 74.0262 35.7926C74.7102 34.5326 74.5302 34.5686 74.5302 34.5686L73.7022 35.4326C73.7022 35.4326 74.3502 33.7406 74.9622 32.6606C75.8622 31.1486 77.2662 30.4646 78.8862 30.5726C80.5062 30.7166 79.8582 33.0206 79.8582 33.0206Z" fill="#404040"/>
<path d="M76.7995 40.8324C76.7995 40.8324 76.2235 39.3564 75.0715 39.5724C73.3795 39.8604 72.9835 44.7564 76.3675 44.7564" fill="#F3B2A7"/>
<path d="M90.5156 40.8324C90.5156 40.8324 91.0916 39.3564 92.2436 39.5724C93.9356 39.8604 94.3316 44.7564 90.9476 44.7564" fill="#F3B2A7"/>
<path opacity="0.33" d="M90.5156 40.8324C90.5156 40.8324 91.0916 39.3564 92.2436 39.5724C93.9356 39.8604 94.3316 44.7564 90.9476 44.7564" fill="#F3B2A7"/>
<path d="M62.1113 50.9482L63.3713 45.1162L64.4873 46.8442L62.1113 50.9482Z" fill="#F9E4B9"/>
<path d="M55.5957 61.6758L66.1077 73.9518L65.2077 80.3598C65.1717 80.3598 57.5037 68.6598 55.5957 61.6758Z" fill="#F9E4B9"/>
<path d="M99.3713 109.556L100.667 90.8004L96.7433 70.5684L98.5073 90.7284L95.4473 109.052L99.3713 109.556Z" fill="#F9E4B9"/>
<path opacity="0.55" d="M82.1623 117.188C82.1623 117.188 81.5503 121.436 81.3343 122.84C79.9303 132.452 76.1143 134.144 77.3023 134.144C78.4903 134.144 79.7143 134.144 79.7143 134.144L76.6543 140.516H79.0303H80.3623H82.9903L85.1503 123.128L82.1623 117.188Z" fill="#024386"/>
<path d="M114.349 59.5167L111.973 58.5447C111.973 58.5447 113.089 52.7127 121.765 50.8407C131.845 48.6447 134.329 50.2647 137.605 54.2967" fill="#FA9900"/>
<path d="M121.403 49.5803L120.719 49.0763L120.971 53.1803C121.007 54.0083 120.575 54.8003 119.819 55.1603L116.939 56.5283C116.939 56.5283 121.907 60.2003 126.443 59.3723C130.979 58.5803 135.011 55.5923 135.011 55.5923L132.635 54.8003C131.879 54.5483 131.339 53.8643 131.231 53.0723L130.583 47.5283L121.403 49.5803Z" fill="#F3B2A7"/>
<path opacity="0.74" d="M121.403 49.5804L120.863 51.7044C120.863 51.7044 123.491 54.9444 127.127 54.9804C130.763 55.0164 131.627 54.1524 131.627 54.1524C131.627 54.1524 131.087 53.2524 130.763 48.6084L121.403 49.5804Z" fill="#F3B2A7"/>
<path d="M126.084 31.653C126.084 31.653 131.304 28.593 132.636 31.041C133.968 33.453 132.816 33.561 134.076 35.001C135.084 36.153 135.372 37.665 134.508 39.465C133.86 40.869 133.968 42.489 134.76 43.785C134.76 43.821 134.796 43.821 134.796 43.857C136.992 46.341 134.148 49.761 132.6 49.617C129.648 49.365 128.784 50.553 128.964 51.345C129.144 52.137 122.628 50.841 122.628 50.841C122.628 50.841 119.676 51.669 118.308 51.561C116.94 51.453 115.068 50.985 115.032 49.113C114.996 47.241 117.084 46.305 115.572 45.117C114.024 43.929 111.756 40.797 113.628 38.277C115.752 35.325 119.46 34.101 119.46 34.101L126.084 31.653Z" fill="#404040"/>
<path d="M116.94 40.6525C117.012 35.9005 119.316 31.6885 124.932 31.6885C133.536 31.7245 134.184 46.0525 129.972 50.8045C127.416 53.6845 122.736 53.6845 120.54 51.2005C118.236 48.6445 116.868 44.4685 116.94 40.6525Z" fill="#F3B2A7"/>
<path opacity="0.27" d="M131.807 38.853C131.267 37.053 130.763 35.253 129.719 33.957L125.471 36.405C125.471 36.405 125.003 40.149 125.291 41.949C125.975 46.017 127.487 45.765 126.335 47.025C125.399 48.033 127.235 50.337 126.371 52.929C127.883 52.605 130.187 51.309 130.763 49.941C132.095 46.629 133.031 42.921 131.807 38.853Z" fill="#F3B2A7"/>
<path d="M132.707 108.369V127.125L128.783 140.517H115.787L114.779 111.177L116.363 101.025L125.435 100.305L130.943 103.473L132.707 108.369Z" fill="#667EA2"/>
<path opacity="0.09" d="M132.707 108.369V127.125L128.783 140.517H115.787L114.779 111.177L116.363 101.025L125.435 100.305L130.943 103.473L132.707 108.369Z" fill="#667EA2"/>
<path d="M130.188 31.5807C130.188 31.5807 128.784 37.2327 126.696 37.1247C124.608 37.0167 123.672 36.4767 123.024 37.1967C122.376 37.9167 122.7 39.7527 121.08 39.9327C119.424 40.1127 118.488 39.1767 117.876 40.3647C117.228 41.5527 114.744 43.1007 114.168 41.6247C113.556 40.1847 114.096 43.0647 114.096 43.0647C114.096 43.0647 111.612 40.1127 113.736 37.6647C115.32 35.8647 114.348 35.5407 114.456 33.8127C114.564 32.0847 115.932 30.7527 118.56 30.7167C121.188 30.6807 121.692 27.6927 124.14 28.4487C126.588 29.2047 126.12 29.9607 127.848 29.6367C129.576 29.3127 131.592 29.3127 132.708 31.0047C133.752 32.7327 130.188 31.5807 130.188 31.5807Z" fill="#404040"/>
<path d="M144.552 95.1924C144.552 95.1924 148.26 102.968 148.764 113.948C149.268 124.964 147.828 140.48 147.828 140.48H132.708L129.612 100.196L129.576 100.268L144.552 95.1924Z" fill="#667EA2"/>
<path d="M144.12 31.6166C144.12 31.6166 141.852 29.7086 139.728 28.8806C137.604 28.0526 136.956 28.2326 135.12 27.5486C133.32 26.8286 130.296 26.3966 130.332 26.0726C130.368 25.7486 130.656 24.6686 132.06 24.9206C133.464 25.1726 134.94 25.2806 134.94 25.2806L130.188 20.9606C130.188 20.9606 128.316 19.2686 129.036 18.5846C129.792 17.9006 133.176 21.7526 133.5 21.5006C133.968 21.1406 131.952 18.7646 131.952 18.7646C131.952 18.7646 129.684 16.2806 130.404 15.5966C131.124 14.9126 134.58 19.5206 134.58 19.5206C134.58 19.5206 135.3 20.1686 135.336 19.5206C135.372 18.8726 132.348 15.4166 132.852 14.6606C133.356 13.9046 135.624 17.1446 135.624 17.1446C135.624 17.1446 136.668 19.1606 137.136 18.5486C137.604 17.9366 135.696 14.7686 136.308 14.4446C136.92 14.1206 138.252 16.6406 138.648 17.6486C139.044 18.6566 139.836 19.9886 140.736 20.7806C141.6 21.6086 142.752 22.7246 142.716 24.0566L146.1 26.2886L144.12 31.6166Z" fill="#F3B2A7"/>
<path opacity="0.24" d="M135.156 25.2445C135.156 25.2445 138.216 24.9925 139.26 25.6405L137.856 24.2365C137.856 24.2005 135.984 24.9925 135.156 25.2445Z" fill="#F3B2A7"/>
<path d="M118.488 41.4447C118.488 41.4447 117.732 38.9967 116.148 40.5087C114.564 42.0207 115.932 46.8447 118.776 45.0087" fill="#F3B2A7"/>
<path d="M132.851 41.553C132.851 41.553 132.959 39.213 131.771 39.285C130.295 39.357 130.043 38.241 130.151 36.981C130.295 34.893 128.171 37.845 125.939 37.089C124.571 36.621 125.075 34.029 125.075 34.029L126.443 32.121L131.051 31.833L133.535 35.433L132.851 41.553Z" fill="#404040"/>
<path d="M131.484 40.3649C131.484 40.3649 131.772 38.2049 133.32 39.2489C134.868 40.2929 134.4 44.5409 131.736 43.4249" fill="#F3B2A7"/>
<path opacity="0.24" d="M131.484 40.3649C131.484 40.3649 131.772 38.2049 133.32 39.2489C134.868 40.2929 134.4 44.5409 131.736 43.4249" fill="#F3B2A7"/>
<path d="M117.768 56.3126C117.768 56.3126 121.044 58.9046 126.948 57.6086C132.852 56.3126 133.104 55.0166 133.104 55.0166L138.144 56.4926L141.312 62.3606C141.312 62.3606 143.688 67.4006 143.688 67.8326C143.688 68.2646 142.392 74.8886 142.392 74.8886L144.48 98.0006C144.48 98.0006 140.772 102.933 131.124 104.229C121.476 105.525 115.464 101.853 115.464 101.853V84.6086V71.3606V60.2006L114.852 56.6006L117.768 56.3126Z" fill="#FFF9E2"/>
<path d="M94.2598 108.08L89.7598 113.372C89.3278 113.876 89.0398 114.524 89.0038 115.208L88.6438 119.06C88.6078 119.528 88.6798 119.996 88.8598 120.428C89.1478 121.148 89.6158 122.228 89.9398 122.732C90.1918 123.128 90.5878 122.84 90.8758 122.444C91.2358 122.012 91.3438 121.436 91.2358 120.86L90.9478 119.564C90.9118 119.348 90.9118 119.132 91.0198 118.916L92.6398 115.496C92.7118 115.316 92.8918 115.208 93.1078 115.208L93.6838 115.244C94.0438 115.28 94.2598 115.64 94.0798 115.964L92.6758 118.664C92.4598 119.06 92.8198 119.564 93.2878 119.456L93.8638 119.348C94.1518 119.276 94.4038 119.168 94.5838 118.988L97.0678 116.792C97.4998 116.396 97.7878 115.856 97.8958 115.28L98.5438 110.924L94.2598 108.08Z" fill="#F3B2A7"/>
<path d="M113.557 62.3967C113.557 62.3967 122.305 65.5647 140.053 61.3887V70.7127C140.053 70.7127 128.245 75.6447 113.557 72.1167V62.3967Z" fill="#024386"/>
<path d="M114.42 77.7687C114.42 77.7687 123.168 80.9367 140.916 76.7607V86.0848C140.916 86.0848 129.108 91.0168 114.42 87.4888V77.7687Z" fill="#024386"/>
<path d="M115.285 93.5725C115.285 93.5725 124.033 96.7405 141.781 92.5645V101.888C141.781 101.888 129.973 106.82 115.285 103.292V93.5725Z" fill="#024386"/>
<path d="M132.42 54.2605C132.42 54.2605 131.772 55.1245 132.348 60.0565C132.924 64.9885 131.664 69.3085 132.168 74.3485C132.672 79.3885 130.62 84.4285 133.032 90.8005C135.444 97.1725 135.516 113.372 135.516 113.372L136.524 115.532C136.524 115.532 146.748 115.424 150.708 112.184C150.708 112.184 151.176 106.532 150.096 102.104C149.016 97.6765 145.884 89.9725 145.668 84.2845C145.452 78.5965 145.956 70.8925 145.956 70.8925L141.816 58.4005L143.976 51.7405C143.976 51.7045 139.512 55.7005 132.42 54.2605Z" fill="#FA9900"/>
<path d="M135.947 57.141L137.495 54.765C140.627 52.749 144.947 49.977 146.747 46.737L148.403 43.749L138.791 29.529C138.791 29.529 143.147 26.541 144.443 23.877C144.443 23.877 154.631 30.537 158.735 36.801L161.255 41.409C161.255 41.409 161.867 59.409 142.751 73.341L135.947 57.141Z" fill="#FA9900"/>
<path d="M116.904 56.5286C116.904 56.5286 118.848 58.4726 119.928 62.9006C121.008 67.3286 122.556 72.8726 122.7 78.9926C122.808 85.1126 122.7 95.1926 122.7 98.3246C122.7 101.457 124.176 116.937 124.176 116.937C124.176 116.937 113.664 117.405 112.116 115.029C112.116 115.029 113.448 103.257 113.556 100.125C113.664 96.9926 113.664 94.7246 113.808 89.5406C113.916 84.3926 112.008 78.4886 112.116 74.7806C112.224 71.0726 109.344 61.6766 109.344 61.6766C109.344 61.6766 112.44 56.1686 116.904 56.5286Z" fill="#FA9900"/>
<path d="M114.852 61.7128L111.972 58.5088C111.972 58.5088 108.084 60.0208 107.112 66.5008C106.14 72.9808 103.26 87.2728 103.26 87.2728C103.26 87.2728 100.74 90.4048 99.6603 92.5648C98.5803 94.7248 92.8203 108.549 92.8203 108.549C92.8203 108.549 97.2483 111.897 99.5523 112.041C99.5523 112.041 112.152 97.6408 114.852 92.3488C117.552 87.0568 114.852 61.7128 114.852 61.7128Z" fill="#FA9900"/>
<path d="M135.515 54.9806L137.567 54.2246C137.567 54.2246 136.955 55.2686 136.199 56.4926C135.587 57.4286 134.039 59.9846 133.031 62.7206L135.515 54.9806Z" fill="#FA9900"/>
<path d="M114.06 58.1846L111.936 58.6886C111.936 58.6886 114.096 59.9486 115.248 61.1006C116.04 61.8926 117.732 63.2246 119.676 65.8526L114.06 58.1846Z" fill="#FA9900"/>
<path d="M120.469 54.6565C118.993 59.9845 120.289 64.0165 120.901 66.7165C120.901 66.7165 116.941 59.9845 111.973 58.5085C111.973 58.5085 121.729 50.0845 120.469 54.6565Z" fill="#FA9900"/>
<path d="M131.484 53.4684C132.636 57.2844 132.456 64.6284 132.456 64.6284C132.456 64.6284 134.112 58.6524 135.084 57.1764C136.884 54.4404 137.568 54.2604 137.568 54.2604C137.568 54.2604 130.26 49.3284 131.484 53.4684Z" fill="#FA9900"/>
<path d="M120.899 52.3887C120.899 52.3887 118.487 53.6847 119.783 59.5167C119.783 59.5167 119.711 55.6287 120.467 54.6927C120.467 54.6567 121.295 53.5767 120.899 52.3887Z" fill="#FA9900"/>
<path d="M131.088 51.7041C131.088 51.7041 131.196 53.6841 131.7 54.1521L132.132 56.5641C132.096 56.6001 132.6 53.4321 131.088 51.7041Z" fill="#FA9900"/>
<path d="M113.772 76.9766V94.1486L108.588 101.169L111.972 90.9806L113.772 76.9766Z" fill="#FA9900"/>
<path d="M153.696 62.0361C153.696 62.0361 146.316 66.3561 144.84 68.8761C142.86 72.2961 145.596 82.5561 145.596 82.5561L145.956 70.8201C145.956 70.8561 151.14 66.0321 153.696 62.0361Z" fill="#FA9900"/>
<path d="M150.96 48.645L148.44 43.749L147.576 45.369L150.96 48.645Z" fill="#FA9900"/>
<path d="M103.26 87.309L105.852 85.293L103.476 86.301L103.26 87.309Z" fill="#FA9900"/>
<path opacity="0.42" d="M130.511 112.076L131.915 131.264L128.783 140.516H126.119L130.511 112.076Z" fill="#667EA2"/>
<path d="M58.079 48.9679L59.159 42.1279C59.159 42.1279 63.911 51.3439 60.239 60.6319C60.239 60.6319 58.655 67.9759 58.871 69.2719C59.051 70.5679 54.371 69.2719 54.371 69.2719L49.403 67.3639L48.791 55.0519L58.079 48.9679Z" fill="#404040"/>
<path d="M54.478 56.0238L58.87 53.4678C58.87 53.4678 58.294 58.5798 57.682 61.6758C57.07 64.7718 58.042 71.7918 58.042 71.7918L50.086 71.6118L49.834 64.7718" fill="#404040"/>
<path d="M53.6871 60.236C53.6871 60.236 52.2831 64.7 52.4991 65.6C52.7151 66.536 58.4031 67.4 60.8511 70.388C63.2631 73.376 52.4991 74.852 52.4991 74.852L45.8751 76.364L36.1191 66.068L37.9191 61.136L44.8311 63.8L46.3431 57.752L53.6871 60.236Z" fill="#F3B2A7"/>
<path opacity="0.58" d="M53.6875 60.2359C53.6875 60.2359 52.3195 64.8799 52.4995 65.5999C52.6795 66.3559 57.6835 68.0479 57.6835 68.0479C57.6835 68.0479 52.0315 70.0279 48.6475 67.6159C45.2275 65.2039 46.0915 59.0479 46.0915 59.0479L53.6875 60.2359Z" fill="#F3B2A7"/>
<path d="M47.567 45.6558L43.679 42.8838C43.679 42.8838 39.251 48.1038 38.459 58.4718L42.995 62.1798L45.155 62.2158L48.755 51.6318L47.567 45.6558Z" fill="#404040"/>
<path d="M45.0834 48.644C46.4874 44.432 49.6914 41.3 54.6954 42.884C62.3634 45.296 58.9794 58.256 53.8674 61.316C50.7714 63.188 46.6314 61.892 45.3354 59.048C44.0394 56.132 43.9674 52.028 45.0834 48.644Z" fill="#F3B2A7"/>
<path opacity="0.24" d="M58.8339 51.1643C58.8699 49.4003 58.9059 47.6723 58.3299 46.1963L53.8659 47.2043C53.8659 47.2043 52.4259 50.4083 52.1739 52.1003C51.6339 55.9163 53.0739 56.0963 51.6699 56.9243C50.5539 57.5723 51.5619 60.1283 50.0859 62.1803C51.5259 62.2883 54.1179 61.3523 55.0539 60.3443C57.4659 57.7523 58.7979 55.1243 58.8339 51.1643Z" fill="#F3B2A7"/>
<path d="M54.4788 109.736C54.4788 109.736 59.5188 119.168 60.4188 140.516H16.9668C16.9668 140.516 16.9308 130.616 20.8908 118.16C24.8508 105.704 29.1348 102.788 29.1348 102.788" fill="#A1B84E"/>
<path d="M28.271 108.908C28.271 108.908 23.771 114.02 23.123 131.66C23.123 131.66 27.011 115.316 32.159 110.384" fill="#A1B84E"/>
<path d="M52.3554 109.305C52.3554 109.305 56.2074 114.957 54.6234 132.525C54.6234 132.525 52.8234 115.821 48.3594 110.277" fill="#A1B84E"/>
<path d="M35.2545 109.484C35.2545 109.484 31.9425 115.46 35.1465 132.812C35.1465 132.812 35.3985 116 39.3585 110.06" fill="#A1B84E"/>
<path d="M41.1953 109.592C41.1953 109.592 39.3232 117.512 42.1312 136.592C42.1312 136.592 43.2832 118.124 45.3712 110.204" fill="#A1B84E"/>
<path d="M58.0434 41.4802C58.0434 41.4802 58.8714 49.4002 52.5714 49.6882C46.2714 49.9762 46.4514 47.9602 43.4274 51.5962C41.8434 53.5042 41.2674 48.3202 41.6994 46.1602C42.5274 42.4882 51.2034 34.6402 58.0434 41.4802Z" fill="#404040"/>
<path d="M55.2349 43.8924C55.2349 43.8924 56.7469 52.9284 58.8709 53.4684C61.6789 54.1884 62.3269 42.8844 57.0709 40.6524C52.3549 38.6364 55.3069 44.4324 55.3069 44.4324L58.3669 46.1964" fill="#404040"/>
<path d="M51.3478 80.6477L58.0438 71.7917C58.1518 71.6477 58.3678 71.5757 58.5478 71.6117C59.8438 72.0077 64.5238 74.0597 64.4158 81.7997C64.3078 90.2237 62.9758 97.9277 62.7958 98.8277C62.7958 98.8997 62.7958 98.9357 62.7958 99.0077C63.0478 100.196 65.4958 114.056 66.6478 117.44C67.8358 121.004 68.2318 123.74 67.0438 126.26C65.8558 128.78 63.1198 129.536 62.9398 129.068C62.7958 128.636 64.3438 127.016 64.3438 125.684C64.3438 125.576 64.4158 125.504 64.3798 125.432L64.1998 123.992C64.1278 123.56 63.5878 123.416 63.3358 123.812L62.7598 124.712C62.7598 124.712 62.7598 124.748 62.7238 124.748L62.4358 125.288C62.2198 125.72 61.6078 125.576 61.5718 125.108C61.4998 123.956 61.7878 122.624 61.6798 122.336C61.5358 121.94 62.1838 120.068 62.5798 119.348C62.6878 119.204 62.6518 118.988 62.5438 118.844C61.5718 117.44 56.2798 110.24 55.3798 107.36C54.4078 104.3 51.5638 83.2397 51.2758 81.0077C51.2398 80.8637 51.2758 80.7557 51.3478 80.6477Z" fill="#F3B2A7"/>
<path d="M34.9317 68.0482L36.5877 64.1242L30.0717 45.3322C29.8197 44.8282 29.6757 44.3242 29.6397 43.7482L28.4157 24.6322L23.2677 23.4082L21.6837 44.1442C21.4677 46.6282 21.6837 49.1122 22.2597 51.5242L29.8557 75.8962L34.9317 68.0482Z" fill="#F3B2A7"/>
<path d="M57.682 68.0479L49.834 78.4159C49.834 78.4159 52.93 101.348 54.226 107.216C58.834 100.592 62.794 98.7559 62.794 98.7559C62.794 98.7559 64.486 89.6478 64.63 79.5678C64.738 69.5238 57.682 68.0479 57.682 68.0479Z" fill="#006E58"/>
<path d="M28.7022 27.944C28.7022 27.944 28.1982 25.2441 28.4862 23.1201C28.7742 20.9961 29.2422 20.5641 29.4942 18.7641C29.7462 16.9641 30.7542 14.3001 30.4662 14.1921C30.1782 14.0841 29.2062 13.8321 28.7382 15.0561C28.3062 16.3161 27.7302 17.5401 27.7302 17.5401L26.3622 11.7081C26.3622 11.7081 25.8582 9.40407 24.9582 9.69207C24.0582 9.98007 25.6422 14.5161 25.2822 14.6601C24.7782 14.8761 23.7702 12.1401 23.7702 12.1401C23.7702 12.1401 22.7982 9.18807 21.8982 9.44007C20.9982 9.72807 23.1942 14.6241 23.1942 14.6241C23.1942 14.6241 23.3742 15.4881 22.8702 15.2361C22.3302 14.9841 20.8902 10.9521 20.0262 11.0241C19.1622 11.0961 20.7822 14.4081 20.7822 14.4081C20.7822 14.4081 21.9702 16.1721 21.2142 16.2801C20.4942 16.3881 18.8022 13.4001 18.2262 13.7601C17.6862 14.1201 19.1262 16.3521 19.7742 17.1081C20.4222 17.8641 21.1422 19.1601 21.3942 20.2401C21.6462 21.3201 22.0422 22.7601 23.1942 23.3361L23.4822 27.1161L28.7022 27.944Z" fill="#F3B2A7"/>
<path opacity="0.24" d="M27.5872 17.7197C27.5872 17.7197 26.0032 20.0957 26.0392 21.2477L25.5352 19.4477C25.5352 19.4477 27.0112 18.2597 27.5872 17.7197Z" fill="#F3B2A7"/>
<path d="M30.071 45.332C29.819 44.828 29.675 44.324 29.639 43.748C29.639 43.748 26.759 48.0681 21.791 49.0761C21.899 49.9041 22.043 50.7321 22.223 51.5601L28.919 79.6041L34.967 68.0481C34.967 68.0481 39.395 62.6481 38.279 61.1361C34.427 56.0241 30.071 45.332 30.071 45.332Z" fill="#006E58"/>
<path d="M50.7713 69.2721C53.0393 69.3441 55.8833 69.1641 57.6473 68.0481C57.6473 68.0481 61.6433 69.7041 62.6513 73.5561C63.6593 77.3721 58.4033 82.2321 57.6473 88.2801C56.8913 94.2921 55.8113 103.472 55.8113 103.472C55.8113 103.472 57.6833 112.94 55.1993 114.344C52.7153 115.748 49.2593 114.848 46.5593 114.344C43.8233 113.84 39.3953 116.144 35.2913 115.1C31.1513 114.02 29.3513 111.428 26.7233 111.428C24.0953 111.428 21.5033 110.924 22.1873 108.116C22.9073 105.308 27.2273 94.2201 27.3353 90.9081C27.4433 87.5961 28.6313 76.4001 28.6313 76.4001C28.6313 76.4001 32.4473 61.4961 36.8033 60.7041C38.4953 60.3801 41.0873 63.0441 41.0873 63.0441C41.0873 63.0441 41.4113 63.9081 42.3113 65.0961C44.3633 67.6521 47.4953 69.1641 50.7713 69.2721Z" fill="#006E58"/>
<path opacity="0.65" d="M58.4744 82.916C58.4744 82.916 55.5944 99.548 55.8104 103.472C55.9904 106.604 56.0264 104.804 56.0264 104.804L59.1224 101.456C59.1584 101.456 58.1144 94.004 58.4744 82.916Z" fill="#006E58"/>
<path d="M42.5262 56.4557C42.5262 56.4557 39.8982 51.1277 38.8182 56.1677C37.7022 61.1717 38.6742 64.6277 38.9982 67.6157C39.6462 73.2677 35.3262 76.1837 35.3262 76.1837C35.3262 76.1837 45.0102 78.5597 45.0462 71.6117C45.1182 64.5197 44.2902 66.1037 45.3342 61.0277C45.5862 59.7317 41.2302 59.5877 42.5262 56.4557Z" fill="#404040"/>
<path opacity="0.65" d="M24.7422 62.2158L31.0422 75.4998L27.6942 87.6318C27.6942 87.6318 28.1262 81.1518 28.4142 78.4158C28.6302 76.3638 24.7422 62.2158 24.7422 62.2158Z" fill="#006E58"/>
<path d="M45.8743 50.9836C45.8743 50.9836 45.5503 48.6076 43.8583 49.7596C42.1663 50.8756 42.6703 55.5556 45.5503 54.3316" fill="#F3B2A7"/>
<path d="M57.2504 53.2519C57.2504 53.2519 58.1504 51.4159 59.1944 52.7839C60.2384 54.1519 58.5824 57.788 56.5664 55.9879" fill="#F3B2A7"/>
<path opacity="0.24" d="M57.2504 53.2519C57.2504 53.2519 58.1504 51.4159 59.1944 52.7839C60.2384 54.1519 58.5824 57.788 56.5664 55.9879" fill="#F3B2A7"/>
<path d="M215.794 44.8648C215.794 44.8648 214.21 46.3048 215.434 45.4048C217.954 43.5328 224.002 44.3608 225.19 51.8848C226.162 57.9688 225.01 60.3808 230.158 61.8208C233.398 62.7208 235.594 64.8809 236.53 68.1569C237.502 71.4689 237.538 74.7809 241.138 78.7049C244.738 82.6289 239.05 89.4329 233.83 89.7929C228.61 90.1889 212.41 88.1369 212.41 88.1369L215.794 44.8648Z" fill="#404040"/>
<path d="M217.559 44.5405C217.559 44.5405 217.595 43.6405 215.039 43.2805C209.567 42.4525 206.075 46.0525 204.635 51.3805C203.159 56.7445 205.463 58.2925 200.891 61.1005C196.283 63.9085 194.051 64.7365 193.331 71.0005C192.611 77.2645 195.743 76.9405 193.331 80.9365C190.919 84.9325 196.067 89.8285 196.067 89.8285L204.239 88.7845L209.279 88.2805L213.887 88.1725L216.911 76.5805L217.559 44.5405Z" fill="#404040"/>
<path d="M208.737 51.2725C208.737 51.2725 205.101 54.1165 207.261 61.1365C207.261 61.1365 208.413 63.0085 205.101 64.5205C201.789 66.0325 194.589 70.1005 196.569 79.0285C198.549 87.9565 213.957 85.5084 213.957 85.5084L230.085 84.1045C230.085 84.1045 236.457 86.2645 236.565 82.8085C236.673 79.3525 235.305 71.6125 231.237 68.2285C227.673 65.2405 222.057 64.0885 222.489 61.1365C223.209 55.7725 218.493 53.3965 218.493 53.3965L208.737 51.2725Z" fill="#404040"/>
<path d="M205.535 114.452L197.759 121.544L197.543 140.516H214.211L219.971 117.692L205.535 114.452Z" fill="#024386"/>
<path opacity="0.1" d="M205.535 114.452L197.759 121.544L197.543 140.516H214.211L219.971 117.692L205.535 114.452Z" fill="#024386"/>
<path opacity="0.36" d="M214.319 117.729L212.771 124.569C212.447 125.937 211.979 127.233 211.331 128.493C209.855 131.301 207.299 136.305 208.055 135.945C208.883 135.585 210.107 134.577 210.611 134.181L210.539 134.469L207.119 140.517H209.387H209.315H214.211L218.279 127.233L214.319 117.729Z" fill="#024386"/>
<path d="M214.822 119.384L227.17 110.924C230.842 108.404 235.774 111.032 236.638 115.388C238.402 124.172 235.702 125.828 234.082 132.884L231.886 140.552H215.902L214.822 119.384Z" fill="#024386"/>
<path d="M185.05 78.1646C185.05 78.1646 183.97 75.6086 183.79 73.4846C183.61 71.3606 183.97 70.8206 183.826 69.0206C183.682 67.2206 184.114 64.3766 183.826 64.3406C183.538 64.3046 182.494 64.2326 182.314 65.5646C182.134 66.8966 181.846 68.2286 181.846 68.2286L179.29 62.7926C179.29 62.7926 178.318 60.6326 177.49 61.1006C176.662 61.5686 179.182 65.6726 178.858 65.8886C178.426 66.2126 176.842 63.7286 176.842 63.7286C176.842 63.7286 175.258 61.0286 174.43 61.4606C173.602 61.9286 176.806 66.2846 176.806 66.2846C176.806 66.2846 177.166 67.1126 176.59 66.9686C176.014 66.8246 173.746 63.1886 172.918 63.4406C172.09 63.6926 174.394 66.5726 174.394 66.5726C174.394 66.5726 175.906 68.0486 175.222 68.3006C174.538 68.5526 172.234 65.9966 171.766 66.4646C171.298 66.9326 173.206 68.8046 173.998 69.4166C174.79 70.0286 175.762 71.1086 176.23 72.1166C176.734 73.1246 177.418 74.4566 178.642 74.7806L179.722 78.4166L185.05 78.1646Z" fill="#F3B2A7"/>
<path opacity="0.24" d="M181.739 68.4082C181.739 68.4082 180.695 71.0722 180.983 72.1882L180.119 70.5322C180.119 70.5322 181.307 69.0562 181.739 68.4082Z" fill="#F3B2A7"/>
<path d="M225.009 69.3444C225.009 69.3444 219.609 70.4604 210.609 69.6324C199.521 68.6244 199.809 74.0964 200.277 82.4484C200.745 90.8004 201.249 100.844 201.249 100.844C201.249 100.844 196.677 120.176 197.721 121.544C198.765 122.948 224.397 129.536 236.925 121.508C236.925 121.508 239.013 118.052 233.109 104.048C228.285 92.6364 231.309 81.1164 231.309 81.1164C231.309 81.1164 233.757 68.8044 225.009 69.3444Z" fill="#BD262B"/>
<path d="M206.039 69.705C206.039 69.705 202.691 68.913 199.415 72.009C196.139 75.105 191.819 89.685 191.819 89.685L183.935 74.349C183.935 74.349 182.207 75.357 178.643 75.897C178.643 75.897 179.471 108.945 189.875 107.973C194.771 107.505 202.799 97.7489 202.799 97.7489L203.195 74.169L206.039 69.705Z" fill="#BD262B"/>
<path d="M200.314 86.4805L201.07 99.6925C201.07 99.6925 194.374 107.612 189.91 107.936C189.91 107.936 194.194 105.74 195.886 102.716C197.47 99.8365 195.634 99.1525 196.21 98.2165C198.118 95.2285 200.314 86.4805 200.314 86.4805Z" fill="#BD262B"/>
<path d="M224.075 80.9365L228.503 97.0285L217.955 112.365L226.379 96.5245L224.075 80.9365Z" fill="#BD262B"/>
<path d="M224.722 109.917L214.318 123.165L235.702 110.925L233.11 104.049L224.722 109.917Z" fill="#BD262B"/>
<path d="M208.989 122.193C208.809 121.725 209.421 121.473 211.005 120.825C211.077 120.789 211.365 120.465 211.401 120.429C211.653 120.285 209.421 121.293 209.205 120.897C208.917 120.357 209.313 120.033 211.329 119.205C212.625 118.665 213.849 118.233 213.957 117.729C214.245 116.505 210.753 116.901 212.049 116.181C212.481 115.929 213.633 115.533 214.245 115.389C215.397 115.065 215.217 115.029 217.413 114.957C220.869 114.849 223.389 109.305 222.489 113.373C222.201 114.741 221.769 116.181 220.869 117.513C219.033 120.141 216.117 122.373 214.245 123.165C214.137 123.201 213.993 123.273 213.885 123.309C212.949 123.777 212.085 123.957 211.905 123.741C211.653 123.417 212.733 122.805 213.597 122.445C213.849 122.337 210.753 123.597 210.429 123.237C210.105 122.841 211.509 122.193 212.553 121.761C212.913 121.617 209.277 122.913 208.989 122.193Z" fill="#EA9883"/>
<path d="M222.779 69.9204H223.139C223.139 69.9204 230.591 67.0044 234.443 74.2764C237.107 79.3524 239.051 91.3404 239.627 97.6764C239.879 100.484 239.051 103.328 237.323 105.56C234.443 109.232 228.323 114.56 221.447 119.06L217.559 114.02L228.539 97.0644L222.491 81.1164C220.979 77.2284 219.827 72.8364 222.779 69.9204Z" fill="#BD262B"/>
<path d="M211.293 62.6127L210.609 62.0727L210.645 66.1767C210.645 67.0407 210.141 67.7967 209.349 68.1207L206.361 69.3447C206.361 69.3447 210.429 72.1167 215.757 72.0447C220.365 71.9727 224.577 69.4167 224.577 69.4167L222.237 68.5167C221.481 68.2287 220.977 67.5087 220.905 66.7167L220.545 61.1367L211.293 62.6127Z" fill="#F3B2A7"/>
<path opacity="0.69" d="M211.547 61.1006L210.467 60.0566V64.1606C210.467 64.1606 212.339 69.5246 217.559 69.8846C222.815 70.2807 225.047 69.6687 225.011 69.3087C225.011 69.3087 221.123 68.8406 220.979 67.0046C220.871 65.1686 220.583 61.1006 220.583 61.1006H211.547Z" fill="#F3B2A7"/>
<path d="M207.298 53.4328C207.658 48.6808 210.178 44.5768 215.794 44.9008C224.434 45.4048 224.29 59.8048 219.79 64.3408C217.054 67.0768 212.41 66.8248 210.322 64.1968C208.162 61.4968 207.01 57.2488 207.298 53.4328Z" fill="#F3B2A7"/>
<path opacity="0.27" d="M222.309 52.4248C221.877 50.5888 221.481 48.7888 220.473 47.3848L216.045 49.6168C216.045 49.6168 215.361 53.3248 215.577 55.1968C216.045 59.3008 217.557 59.1568 216.333 60.3448C215.325 61.3168 217.053 63.7288 216.045 66.2488C217.557 65.9968 219.969 64.8448 220.617 63.4768C222.165 60.2368 223.317 56.5648 222.309 52.4248Z" fill="#F3B2A7"/>
<path d="M193.294 95.1566L191.818 89.6846L192.538 87.3086L193.294 95.1566Z" fill="#BD262B"/>
<path d="M204.886 52.6763C205.138 50.2283 207.226 43.9283 215.002 43.2803C217.99 43.0283 217.918 48.2123 215.794 50.9843C214.426 52.7843 212.914 52.8203 210.682 53.5403C206.434 54.8723 207.226 61.1363 207.226 61.1363C207.226 61.1363 204.706 54.6563 204.886 52.6763Z" fill="#404040"/>
<path d="M216.01 48.4283C216.01 48.4283 216.442 52.1003 219.574 52.3883C224.83 52.8203 220.87 62.1803 223.714 62.1803C224.938 62.1803 223.642 55.4483 223.642 55.4483L223.03 51.2003L221.878 47.4563L220.258 46.4123L216.838 44.6123L215.434 45.9443L216.01 48.4283Z" fill="#404040"/>
<path d="M209.278 55.6283C209.278 55.6283 209.134 53.6483 207.406 54.2963C205.678 54.9443 205.786 59.7683 208.99 59.3723" fill="#F3B2A7"/>
<path d="M220.979 55.5209C220.979 55.5209 221.123 53.5409 222.851 54.1889C224.579 54.8369 224.471 59.6609 221.267 59.2649" fill="#F3B2A7"/>
<path opacity="0.27" d="M220.979 55.5209C220.979 55.5209 221.123 53.5409 222.851 54.1889C224.579 54.8369 224.471 59.6609 221.267 59.2649" fill="#F3B2A7"/>
</svg>
